A crew of African American pilots in the Tuskegee training program, having faced segregation while kept mostly on the ground during World War II, are called into duty under the guidance of Col. A.J. Bullard.
 
Cast: Cuba Gooding Jr., Terrence Howard, Bryan Cranston, Stacie Davis, Mark Doerr 
 
http://www.imdb.com/title/tt0485985/

Complete name : Red Tails 2012 DVDRiP.XViD.AC3-ART3MiS.avi
 Format : AVI
 Format/Info : Audio Video Interleave
 File size : 1.14 GiB
 Duration : 2h 5mn
 Overall bit rate : 1 303 Kbps
 Writing application : VirtualDubMod 1.5.10.2 (build 2540/release)
 Writing library : VirtualDub build 32842/release
 
Video
 ID : 0
 Format : MPEG-4 Visual
 Format profile : Advanced Simple@L5
 Format settings, BVOP : 2
 Format settings, QPel : No
 Format settings, GMC : No warppoints
 Format settings, Matrix : Default (H.263)
 Codec ID : XVID
 Codec ID/Hint : XviD
 Duration : 2h 5mn
 Bit rate : 1 102 Kbps
 Width : 640 pixels
 Height : 272 pixels
 Display aspect ratio : 2.35:1
 Frame rate : 23.976 fps
 Color space : YUV
 Chroma subsampling : 4:2:0
 Bit depth : 8 bits
 Scan type : Progressive
 Compression mode : Lossy
 Bits/(Pixel*Frame) : 0.264
 Stream size : 987 MiB (85%)
 Writing library : XviD 61
 
Audio
 ID : 1
 Format : AC-3
 Format/Info : Audio Coding 3
 Mode extension : CM (complete main)
 Format settings, Endianness : Big
 Codec ID : 2000
 Duration : 2h 4mn
 Bit rate mode : Constant
 Bit rate : 192 Kbps
 Channel(s) : 2 channels
 Channel positions : Front: L R
 Sampling rate : 48.0 KHz
 Bit depth : 16 bits
 Compression mode : Lossy
 Stream size : 172 MiB (15%)
 Alignment : Aligned on interleaves
 Interleave, duration : 42 ms (1.00 video frame)
 Interleave, preload duration : 512 ms
 
http://www.shotpix.com/images/72347861174207712031.jpg